<svg width="92" height="99" viewBox="0 0 182 269" fill="none" xmlns="http://www.w3.org/2000/svg">
<path d="M59.892 156.412C58.42 153.468 57.04 150.524 55.752 147.58C54.556 144.636 53.314 141.646 52.026 138.61C51.658 137.874 51.244 137.138 50.784 136.402C50.416 135.666 49.956 135.022 49.404 134.47C48.392 133.458 47.242 132.952 45.954 132.952C44.39 132.952 43.01 133.642 41.814 135.022C40.618 136.31 39.652 137.828 38.916 139.576C38.18 141.324 37.674 142.842 37.398 144.13C38.502 146.062 40.204 147.994 42.504 149.926C44.804 151.766 47.288 153.33 49.956 154.618C52.716 155.906 55.2 156.55 57.408 156.55C57.868 156.55 58.282 156.55 58.65 156.55C59.11 156.458 59.524 156.412 59.892 156.412ZM84.456 110.596C84.456 106.18 84.042 101.396 83.214 96.244C82.386 91.092 81.006 86.124 79.074 81.34C77.142 76.464 74.474 72.324 71.07 68.92C67.666 65.424 63.388 63.216 58.236 62.296C57.868 62.204 57.5 62.158 57.132 62.158C56.856 62.158 56.534 62.158 56.166 62.158C55.798 62.158 55.476 62.158 55.2 62.158C54.924 62.158 54.602 62.204 54.234 62.296C49.266 63.216 45.126 65.424 41.814 68.92C38.594 72.416 35.972 76.602 33.948 81.478C32.016 86.354 30.636 91.368 29.808 96.52C28.98 101.672 28.566 106.364 28.566 110.596C28.566 113.264 28.658 116.208 28.842 119.428C29.118 122.648 29.624 125.822 30.36 128.95C31.096 132.078 32.108 134.838 33.396 137.23C34.408 135.942 35.742 134.516 37.398 132.952C39.146 131.296 40.986 129.87 42.918 128.674C44.942 127.478 46.828 126.88 48.576 126.88C52.624 126.88 55.798 127.524 58.098 128.812C60.49 130.1 62.836 132.446 65.136 135.85C66.608 138.058 67.896 140.358 69 142.75C70.104 145.05 71.208 147.396 72.312 149.788C75.9 146.476 78.568 142.658 80.316 138.334C82.064 134.01 83.168 129.456 83.628 124.672C84.18 119.888 84.456 115.196 84.456 110.596ZM109.848 166.21C109.848 166.486 109.756 166.808 109.572 167.176C107.272 170.488 104.512 172.88 101.292 174.352C98.072 175.916 94.438 176.698 90.39 176.698C87.17 176.698 84.088 176.422 81.144 175.87C78.2 175.41 75.394 174.168 72.726 172.144C70.702 170.58 68.77 168.74 66.93 166.624C65.182 164.508 63.572 162.392 62.1 160.276C61.272 160.368 60.398 160.414 59.478 160.414C58.65 160.414 57.822 160.414 56.994 160.414C49.726 160.414 43.148 159.172 37.26 156.688C31.372 154.112 26.312 150.57 22.08 146.062C17.848 141.462 14.582 136.126 12.282 130.054C10.074 123.89 8.97 117.266 8.97 110.182C8.97 102.914 10.028 96.106 12.144 89.758C14.352 83.41 17.526 77.844 21.666 73.06C25.898 68.276 31.004 64.55 36.984 61.882C42.964 59.214 49.726 57.88 57.27 57.88C68.034 57.88 76.912 60.18 83.904 64.78C90.896 69.38 96.094 75.636 99.498 83.548C102.994 91.46 104.742 100.476 104.742 110.596C104.742 116.852 103.638 122.924 101.43 128.812C99.222 134.7 96.094 140.036 92.046 144.82C87.998 149.512 83.168 153.33 77.556 156.274C79.028 158.114 80.776 160.092 82.8 162.208C84.824 164.416 87.032 166.256 89.424 167.728C91.816 169.2 94.254 169.936 96.738 169.936C98.578 169.936 100.188 169.43 101.568 168.418C103.04 167.498 104.282 166.578 105.294 165.658C106.398 164.738 107.272 164.278 107.916 164.278C108.376 164.278 108.79 164.462 109.158 164.83C109.618 165.198 109.848 165.658 109.848 166.21Z" fill="black"/>
<path d="M159.17 153.238C159.17 149.374 158.526 145.832 157.238 142.612C155.95 139.392 153.926 136.862 151.166 135.022C148.498 133.09 145.094 132.124 140.954 132.124C140.034 132.124 139.114 132.124 138.194 132.124C137.274 132.032 136.354 131.986 135.434 131.986C133.134 131.986 131.662 132.216 131.018 132.676C130.374 133.044 130.052 134.516 130.052 137.092C130.052 143.348 130.052 149.65 130.052 155.998C130.052 162.346 130.098 168.648 130.19 174.904C131.57 176.1 133.18 176.882 135.02 177.25C136.86 177.526 138.654 177.664 140.402 177.664C145.186 177.664 148.912 176.514 151.58 174.214C154.34 171.822 156.272 168.74 157.376 164.968C158.572 161.196 159.17 157.286 159.17 153.238ZM179.042 152.824C179.042 158.896 177.984 163.864 175.868 167.728C173.752 171.5 170.854 174.444 167.174 176.56C163.586 178.676 159.446 180.148 154.754 180.976C150.154 181.712 145.278 182.08 140.126 182.08C138.47 182.08 136.814 181.988 135.158 181.804C133.502 181.62 131.846 181.436 130.19 181.252C130.19 187.968 130.19 194.684 130.19 201.4C130.19 208.024 130.19 214.694 130.19 221.41C130.19 222.146 130.328 222.928 130.604 223.756C130.972 224.584 131.616 224.998 132.536 224.998C133.732 224.998 134.882 224.952 135.986 224.86C137.182 224.768 138.378 224.722 139.574 224.722C140.218 224.722 140.724 225.09 141.092 225.826C141.552 226.562 141.782 227.16 141.782 227.62C141.782 228.264 141.552 228.77 141.092 229.138C140.632 229.506 140.126 229.69 139.574 229.69C138.378 229.69 137.182 229.644 135.986 229.552C134.79 229.46 133.548 229.368 132.26 229.276C130.42 229.092 128.534 229 126.602 229C124.67 229 122.784 229 120.944 229C116.528 229 112.158 229.138 107.834 229.414C106.822 229.506 105.81 229.552 104.798 229.552C103.878 229.644 102.912 229.69 101.9 229.69C100.98 229.69 100.382 229.414 100.106 228.862C99.83 228.218 99.692 227.574 99.692 226.93C99.692 226.194 99.968 225.688 100.52 225.412C101.072 225.044 101.67 224.86 102.314 224.86C103.142 224.86 103.97 224.906 104.798 224.998C105.626 225.09 106.5 225.136 107.42 225.136C107.604 225.136 107.834 225.136 108.11 225.136C108.386 225.136 108.616 225.136 108.8 225.136C110.088 225.044 110.824 224.308 111.008 222.928C111.284 221.548 111.422 220.398 111.422 219.478V138.196C111.422 137.46 111.33 136.402 111.146 135.022C110.962 133.55 110.318 132.768 109.214 132.676C108.938 132.676 108.662 132.676 108.386 132.676C108.202 132.676 108.018 132.676 107.834 132.676C106.914 132.676 105.994 132.722 105.074 132.814C104.154 132.906 103.234 132.952 102.314 132.952C101.67 132.952 101.026 132.676 100.382 132.124C99.83 131.572 99.554 130.974 99.554 130.33C99.554 129.686 99.83 129.088 100.382 128.536C101.026 127.984 101.67 127.708 102.314 127.708C103.326 127.708 104.338 127.754 105.35 127.846C106.454 127.938 107.512 128.03 108.524 128.122C110.64 128.214 112.71 128.306 114.734 128.398C116.85 128.398 118.92 128.398 120.944 128.398C125.176 128.398 129.362 128.306 133.502 128.122C137.734 127.846 141.966 127.708 146.198 127.708C150.246 127.708 154.202 128.168 158.066 129.088C162.022 129.916 165.564 131.296 168.692 133.228C171.82 135.16 174.304 137.736 176.144 140.956C178.076 144.176 179.042 148.132 179.042 152.824Z" fill="black"/>
</svg>
